<?xml version="1.0" encoding="UTF-8"?>
<!DOCTYPE svg PUBLIC "-//W3C//DTD SVG 1.1//EN" "http://www.w3.org/Graphics/SVG/1.1/DTD/svg11.dtd">
<!-- Creator: CorelDRAW 2018 (64 Bit) -->
<svg xmlns="http://www.w3.org/2000/svg" xml:space="preserve" width="35.9832mm" height="27.6858mm" version="1.1" style="shape-rendering:geometricPrecision; text-rendering:geometricPrecision; image-rendering:optimizeQuality; fill-rule:evenodd; clip-rule:evenodd"
viewBox="0 0 3598.32 2768.58"
 xmlns:xlink="http://www.w3.org/1999/xlink">
 <defs>
  <style type="text/css">
   <![CDATA[
    .fil1 {fill:white}
    .fil0 {fill:white;fill-rule:nonzero}
   ]]>
  </style>
 </defs>
 <g id="Camada_x0020_1">
  <metadata id="CorelCorpID_0Corel-Layer"/>
  <g id="_979422336">
   <path class="fil0" d="M343.04 2626.75c-51.6,0 -90.95,-14.68 -118.05,-44.03 -27.09,-29.35 -40.64,-71.44 -40.64,-126.28l0 -356.08c0,-54.84 13.55,-96.93 40.64,-126.28 27.1,-29.35 66.45,-44.03 118.05,-44.03 51.61,0 90.96,14.68 118.05,44.03 27.1,29.35 40.64,71.44 40.64,126.28l0 58.05 -100.63 0 0 -64.83c0,-44.51 -18.38,-66.76 -55.15,-66.76 -36.77,0 -55.16,22.25 -55.16,66.76l0 370.6c0,43.87 18.39,65.8 55.16,65.8 36.77,0 55.15,-21.93 55.15,-65.8l0 -132.56 -53.22 0 0 -96.76 153.85 0 0 221.58c0,54.84 -13.54,96.93 -40.64,126.28 -27.09,29.35 -66.44,44.03 -118.05,44.03z"/>
   <path id="1" class="fil0" d="M676.65 1939.73l144.18 0 110.31 677.34 -106.44 0 -19.35 -134.5 0 1.93 -120.96 0 -19.35 132.57 -98.7 0 110.31 -677.34zm116.12 452.85l-47.42 -334.8 -1.93 0 -46.45 334.8 95.8 0z"/>
   <polygon id="2" class="fil0" points="1006.39,1939.73 1158.31,1939.73 1226.04,2424.51 1227.98,2424.51 1295.71,1939.73 1447.63,1939.73 1447.63,2617.07 1347,2617.07 1347,2104.23 1345.06,2104.23 1267.65,2617.07 1178.63,2617.07 1101.22,2104.23 1099.29,2104.23 1099.29,2617.07 1006.39,2617.07 "/>
   <polygon id="3" class="fil0" points="1550.94,1939.73 1841.23,1939.73 1841.23,2036.49 1657.38,2036.49 1657.38,2215.5 1803.49,2215.5 1803.49,2312.27 1657.38,2312.27 1657.38,2520.31 1841.23,2520.31 1841.23,2617.07 1550.94,2617.07 "/>
   <polygon id="4" class="fil0" points="2080.98,1939.73 2214.52,1939.73 2318.05,2345.17 2319.99,2345.17 2319.99,1939.73 2414.82,1939.73 2414.82,2617.07 2305.47,2617.07 2177.75,2122.61 2175.81,2122.61 2175.81,2617.07 2080.98,2617.07 "/>
   <path id="5" class="fil0" d="M2671.99 2626.75c-52.26,0 -92.25,-14.84 -119.99,-44.51 -27.74,-29.68 -41.61,-71.61 -41.61,-125.8l0 -356.08c0,-54.19 13.87,-96.12 41.61,-125.8 27.74,-29.67 67.73,-44.51 119.99,-44.51 52.25,0 92.24,14.84 119.98,44.51 27.74,29.68 41.61,71.61 41.61,125.8l0 356.08c0,54.19 -13.87,96.12 -41.61,125.8 -27.74,29.67 -67.73,44.51 -119.98,44.51zm0 -96.77c36.77,0 55.15,-22.25 55.15,-66.76l0 -369.64c0,-44.51 -18.38,-66.76 -55.15,-66.76 -36.77,0 -55.16,22.25 -55.16,66.76l0 369.64c0,44.51 18.39,66.76 55.16,66.76z"/>
   <polygon id="6" class="fil0" points="2903.99,1939.73 3006.56,1939.73 3053.98,2460.31 3055.91,2460.31 3106.23,1939.73 3222.34,1939.73 3272.66,2460.31 3274.6,2460.31 3322.01,1939.73 3413.94,1939.73 3345.23,2617.07 3212.67,2617.07 3164.29,2160.35 3162.35,2160.35 3113.97,2617.07 2972.7,2617.07 "/>
   <path class="fil1" d="M2517.76 142.17c-1.93,-0.23 -3.86,-0.34 -5.81,-0.33l-1439.41 0c-1.93,-0.02 -3.86,0.1 -5.76,0.33 -945.81,15.37 -934.29,1448.74 11.03,1449.69 187.45,0.55 367.71,-72.11 502.36,-202.53l424.15 0c288.45,277.55 747.27,268.72 1024.82,-19.72 129.99,-135.1 202.58,-315.31 202.52,-502.79 -1.16,-395.55 -318.41,-717.57 -713.9,-724.65zm-5.81 191.59c-106,0 -191.92,85.93 -191.92,191.92 0,106 85.92,191.92 191.92,191.92 105.99,0 191.92,-85.92 191.92,-191.92 0,-105.99 -85.93,-191.92 -191.92,-191.92zm0 287.88c-53,0 -95.96,-42.96 -95.96,-95.96 0,-53 42.96,-95.96 95.96,-95.96 53,0 95.96,42.96 95.96,95.96 0,53 -42.96,95.96 -95.96,95.96zm-1055.57 47.99l-191.92 0 0 -191.93c0,-26.5 -21.48,-47.98 -47.98,-47.98l-287.89 0c-26.5,0 -47.98,21.48 -47.98,47.98l0 191.93 -191.92 0c-26.5,0 -47.98,21.48 -47.98,47.97l0 287.89c0,26.49 21.48,47.98 47.98,47.98l191.92 0 0 191.92c0,26.5 21.48,47.98 47.98,47.98l287.89 0c26.5,0 47.98,-21.48 47.98,-47.98l0 -191.92 191.92 0c26.49,0 47.98,-21.48 47.98,-47.98l0 -287.88c0,-26.51 -21.49,-47.98 -47.98,-47.98zm-47.98 287.88l-191.92 0c-26.5,0 -47.98,21.48 -47.98,47.98l0 191.92 -191.92 0 0 -191.92c0,-26.5 -21.49,-47.98 -47.98,-47.98l-191.93 0 0 -191.93 191.92 0c26.5,0 47.98,-21.48 47.98,-47.97l0 -191.92 191.93 0 0 191.92c0,26.49 21.48,47.97 47.98,47.97l191.92 0 0 191.93zm1439.41 -287.88c-105.99,0 -191.92,85.92 -191.92,191.92 0,105.99 85.93,191.92 191.92,191.92 106,0 191.93,-85.93 191.93,-191.92 0,-106 -85.93,-191.92 -191.93,-191.92zm0 287.88c-53,0 -95.96,-42.96 -95.96,-95.96 0,-53 42.96,-95.97 95.96,-95.97 53.01,0 95.97,42.97 95.97,95.97 0,53 -42.97,95.96 -95.97,95.96zm-671.73 -287.88c-105.99,0 -191.92,85.92 -191.92,191.92 0,105.99 85.93,191.92 191.92,191.92 106,0 191.93,-85.93 191.93,-191.92 0,-106 -85.93,-191.92 -191.93,-191.92zm0 287.88c-52.99,0 -95.95,-42.96 -95.95,-95.96 0,-53 42.95,-95.97 95.95,-95.97 53.01,0 95.97,42.97 95.97,95.97 0,53 -42.97,95.96 -95.97,95.96zm335.87 47.98c-106,0 -191.92,85.93 -191.92,191.92 0,105.99 85.92,191.92 191.92,191.92 105.99,0 191.92,-85.93 191.92,-191.92 0,-105.99 -85.93,-191.92 -191.92,-191.92zm0 287.88c-53,0 -95.96,-42.96 -95.96,-95.96 0,-53 42.96,-95.96 95.96,-95.96 53,0 95.96,42.96 95.96,95.96 0,53 -42.96,95.96 -95.96,95.96z"/>
  </g>
 </g>
</svg>
