<?xml version="1.0" encoding="UTF-8"?>
<!DOCTYPE svg PUBLIC "-//W3C//DTD SVG 1.1//EN" "http://www.w3.org/Graphics/SVG/1.1/DTD/svg11.dtd">
<!-- Creator: CorelDRAW 2017 -->
<svg xmlns="http://www.w3.org/2000/svg" xml:space="preserve" width="161.121mm" height="33.0198mm" version="1.1" style="shape-rendering:geometricPrecision; text-rendering:geometricPrecision; image-rendering:optimizeQuality; fill-rule:evenodd; clip-rule:evenodd"
viewBox="0 0 16112.06 3301.98"
 xmlns:xlink="http://www.w3.org/1999/xlink">
 <defs>
  <style type="text/css">
   <![CDATA[
    .fil3 {fill:#072544}
    .fil0 {fill:#07345F}
    .fil1 {fill:white}
    .fil2 {fill:white;fill-rule:nonzero}
   ]]>
  </style>
 </defs>
 <g id="Camada_x0020_1">
  <metadata id="CorelCorpID_0Corel-Layer"/>
  <rect class="fil0" y="-0.01" width="16112.06" height="3301.99"/>
  <path class="fil1" d="M8796.61 673.18c-1.69,-0.2 -3.38,-0.3 -5.08,-0.3l-1259.33 0c-1.68,-0.01 -3.37,0.1 -5.03,0.3 -827.48,13.45 -817.4,1267.48 9.65,1268.31 164,0.49 321.7,-63.09 439.51,-177.19l371.08 0c252.36,242.83 653.78,235.1 896.6,-17.25 113.73,-118.2 177.24,-275.86 177.18,-439.88 -1.01,-346.07 -278.56,-627.8 -624.58,-633.99zm-5.08 167.62c-92.73,0 -167.91,75.17 -167.91,167.91 0,92.73 75.18,167.91 167.91,167.91 92.73,0 167.91,-75.18 167.91,-167.91 0,-92.74 -75.18,-167.91 -167.91,-167.91zm0 251.86c-46.37,0 -83.95,-37.58 -83.95,-83.95 0,-46.38 37.58,-83.96 83.95,-83.96 46.37,0 83.96,37.58 83.96,83.96 0,46.37 -37.59,83.95 -83.96,83.95zm-923.51 41.98l-167.91 0 0 -167.91c0,-23.18 -18.79,-41.98 -41.97,-41.98l-251.87 0c-23.18,0 -41.98,18.8 -41.98,41.98l0 167.91 -167.91 0c-23.18,0 -41.97,18.8 -41.97,41.98l0 251.86c0,23.18 18.79,41.98 41.97,41.98l167.91 0 0 167.91c0,23.18 18.8,41.98 41.98,41.98l251.87 0c23.18,0 41.97,-18.8 41.97,-41.98l0 -167.91 167.91 0c23.19,0 41.98,-18.79 41.98,-41.98l0 -251.86c0,-23.19 -18.79,-41.98 -41.98,-41.98zm-41.97 251.86l-167.91 0c-23.18,0 -41.98,18.8 -41.98,41.98l0 167.91 -167.91 0 0 -167.91c0,-23.18 -18.8,-41.98 -41.98,-41.98l-167.91 0 0 -167.91 167.91 0c23.18,0 41.98,-18.79 41.98,-41.97l0 -167.91 167.91 0 0 167.91c0,23.18 18.8,41.97 41.98,41.97l167.91 0 0 167.91zm1259.32 -251.86c-92.73,0 -167.91,75.18 -167.91,167.91 0,92.73 75.18,167.91 167.91,167.91 92.74,0 167.91,-75.18 167.91,-167.91 0,-92.73 -75.17,-167.91 -167.91,-167.91zm0 251.86c-46.37,0 -83.95,-37.58 -83.95,-83.95 0,-46.37 37.58,-83.96 83.95,-83.96 46.38,0 83.96,37.59 83.96,83.96 0,46.37 -37.59,83.95 -83.96,83.95zm-587.68 -251.86c-92.73,0 -167.91,75.18 -167.91,167.91 0,92.73 75.18,167.91 167.91,167.91 92.73,0 167.91,-75.18 167.91,-167.91 0,-92.73 -75.18,-167.91 -167.91,-167.91zm0 251.86c-46.37,0 -83.96,-37.58 -83.96,-83.95 0,-46.37 37.59,-83.96 83.96,-83.96 46.37,0 83.95,37.59 83.95,83.96 0,46.37 -37.59,83.95 -83.95,83.95zm293.84 41.98c-92.73,0 -167.91,75.18 -167.91,167.91 0,92.73 75.18,167.91 167.91,167.91 92.73,0 167.91,-75.18 167.91,-167.91 0,-92.73 -75.18,-167.91 -167.91,-167.91zm0 251.87c-46.37,0 -83.95,-37.59 -83.95,-83.96 0,-46.37 37.58,-83.95 83.95,-83.95 46.37,0 83.96,37.58 83.96,83.95 0,46.37 -37.59,83.96 -83.96,83.96z"/>
  <path class="fil2" d="M6894 2846.91c-45.15,0 -79.58,-12.84 -103.29,-38.53 -23.71,-25.68 -35.56,-62.51 -35.56,-110.49l0 -311.57c0,-47.98 11.85,-84.81 35.56,-110.49 23.71,-25.68 58.14,-38.53 103.29,-38.53 45.16,0 79.59,12.85 103.3,38.53 23.7,25.68 35.56,62.51 35.56,110.49l0 50.8 -88.06 0 0 -56.73c0,-38.95 -16.08,-58.42 -48.26,-58.42 -32.17,0 -48.26,19.47 -48.26,58.42l0 324.28c0,38.38 16.09,57.57 48.26,57.57 32.18,0 48.26,-19.19 48.26,-57.57l0 -116 -46.56 0 0 -84.66 134.62 0 0 193.88c0,47.98 -11.86,84.81 -35.56,110.49 -23.71,25.69 -58.14,38.53 -103.3,38.53z"/>
  <path id="1" class="fil2" d="M7185.91 2245.77l126.15 0 96.52 592.67 -93.13 0 -16.93 -117.69 0 1.7 -105.84 0 -16.93 115.99 -86.36 0 96.52 -592.67zm101.6 396.24l-41.49 -292.95 -1.69 0 -40.64 292.95 83.82 0z"/>
  <polygon id="2" class="fil2" points="7474.42,2245.77 7607.35,2245.77 7666.62,2669.95 7668.31,2669.95 7727.58,2245.77 7860.5,2245.77 7860.5,2838.44 7772.45,2838.44 7772.45,2389.7 7770.76,2389.7 7703.02,2838.44 7625.13,2838.44 7557.4,2389.7 7555.7,2389.7 7555.7,2838.44 7474.42,2838.44 "/>
  <polygon id="3" class="fil2" points="7950.9,2245.77 8204.9,2245.77 8204.9,2330.44 8044.04,2330.44 8044.04,2487.07 8171.88,2487.07 8171.88,2571.74 8044.04,2571.74 8044.04,2753.77 8204.9,2753.77 8204.9,2838.44 7950.9,2838.44 "/>
  <polygon id="4" class="fil2" points="8414.68,2245.77 8531.52,2245.77 8622.12,2600.53 8623.81,2600.53 8623.81,2245.77 8706.78,2245.77 8706.78,2838.44 8611.11,2838.44 8499.35,2405.79 8497.66,2405.79 8497.66,2838.44 8414.68,2838.44 "/>
  <path id="5" class="fil2" d="M8931.8 2846.91c-45.72,0 -80.71,-12.99 -104.98,-38.95 -24.27,-25.96 -36.41,-62.65 -36.41,-110.07l0 -311.57c0,-47.42 12.14,-84.1 36.41,-110.07 24.27,-25.96 59.26,-38.95 104.98,-38.95 45.72,0 80.72,12.99 104.99,38.95 24.27,25.97 36.41,62.65 36.41,110.07l0 311.57c0,47.42 -12.14,84.11 -36.41,110.07 -24.27,25.96 -59.27,38.95 -104.99,38.95zm0 -84.67c32.18,0 48.26,-19.47 48.26,-58.42l0 -323.43c0,-38.95 -16.08,-58.42 -48.26,-58.42 -32.17,0 -48.26,19.47 -48.26,58.42l0 323.43c0,38.95 16.09,58.42 48.26,58.42z"/>
  <polygon id="6" class="fil2" points="9134.81,2245.77 9224.56,2245.77 9266.04,2701.28 9267.74,2701.28 9311.76,2245.77 9413.36,2245.77 9457.39,2701.28 9459.08,2701.28 9500.57,2245.77 9581.01,2245.77 9520.89,2838.44 9404.9,2838.44 9362.56,2438.81 9360.87,2438.81 9318.54,2838.44 9194.92,2838.44 "/>
  <polygon class="fil3" points="12330.19,0 16112.06,0 16112.06,3301.99 11177.74,3301.99 "/>
 </g>
</svg>
